<?xml version="1.0" encoding="UTF-8"?>
<svg xmlns="http://www.w3.org/2000/svg"
     xmlns:xlink="http://www.w3.org/1999/xlink"
     xmlns:gadfly="http://www.gadflyjl.org/ns"
     version="1.2"
     width="140mm" height="70mm" viewBox="0 0 140 70"
     stroke="none"
     fill="#000000"
     stroke-width="0.3"
     font-size="3.88"
>
<defs>
  <marker id="arrow" markerWidth="15" markerHeight="7" refX="5" refY="3.5" orient="auto" markerUnits="strokeWidth">
    <path d="M0,0 L15,3.5 L0,7 z" stroke="context-stroke" fill="context-stroke"/>
  </marker>
</defs>
<g class="plotroot xscalable yscalable" id="img-6f40b302-1">
  <g font-size="3.88" font-family="'PT Sans','Helvetica Neue','Helvetica',sans-serif" fill="#564A55" stroke="#000000" stroke-opacity="0.000" id="img-6f40b302-2">
    <g transform="translate(75.3,58.39)">
      <g class="primitive">
        <text text-anchor="middle" dy="0.6em">x</text>
      </g>
    </g>
  </g>
  <g class="guide xlabels" font-size="2.82" font-family="'PT Sans Caption','Helvetica Neue','Helvetica',sans-serif" fill="#6C606B" id="img-6f40b302-3">
    <g transform="translate(38.8,51.72)">
      <g class="primitive">
        <text text-anchor="middle" dy="0.6em">-2</text>
      </g>
    </g>
    <g transform="translate(57.05,51.72)">
      <g class="primitive">
        <text text-anchor="middle" dy="0.6em">-1</text>
      </g>
    </g>
    <g transform="translate(75.3,51.72)">
      <g class="primitive">
        <text text-anchor="middle" dy="0.6em">0</text>
      </g>
    </g>
    <g transform="translate(93.54,51.72)">
      <g class="primitive">
        <text text-anchor="middle" dy="0.6em">1</text>
      </g>
    </g>
    <g transform="translate(111.79,51.72)">
      <g class="primitive">
        <text text-anchor="middle" dy="0.6em">2</text>
      </g>
    </g>
  </g>
  <g clip-path="url(#img-6f40b302-4)">
    <g id="img-6f40b302-5">
      <g pointer-events="visible" fill="#E5E5E5" stroke="#000000" class="guide background" id="img-6f40b302-6">
        <g transform="translate(75.3,27.86)" id="img-6f40b302-7">
          <path d="M-47.62,-22.86 L 47.62 -22.86 47.62 22.86 -47.62 22.86 z" class="primitive"/>
        </g>
      </g>
      <g class="guide ygridlines xfixed" stroke-dasharray="0.5,0.5" stroke-width="0.2" stroke="#4D4D4D" id="img-6f40b302-8">
        <g transform="translate(75.3,45.24)" id="img-6f40b302-9">
          <path fill="none" d="M-47.62,0 L 47.62 0" class="primitive"/>
        </g>
        <g transform="translate(75.3,27.86)" id="img-6f40b302-10">
          <path fill="none" d="M-47.62,0 L 47.62 0" class="primitive"/>
        </g>
        <g transform="translate(75.3,10.48)" id="img-6f40b302-11">
          <path fill="none" d="M-47.62,0 L 47.62 0" class="primitive"/>
        </g>
      </g>
      <g class="guide xgridlines yfixed" stroke-dasharray="0.5,0.5" stroke-width="0.2" stroke="#4D4D4D" id="img-6f40b302-12">
        <g transform="translate(38.8,27.86)" id="img-6f40b302-13">
          <path fill="none" d="M0,-22.86 L 0 22.86" class="primitive"/>
        </g>
        <g transform="translate(57.05,27.86)" id="img-6f40b302-14">
          <path fill="none" d="M0,-22.86 L 0 22.86" class="primitive"/>
        </g>
        <g transform="translate(75.3,27.86)" id="img-6f40b302-15">
          <path fill="none" d="M0,-22.86 L 0 22.86" class="primitive"/>
        </g>
        <g transform="translate(93.54,27.86)" id="img-6f40b302-16">
          <path fill="none" d="M0,-22.86 L 0 22.86" class="primitive"/>
        </g>
        <g transform="translate(111.79,27.86)" id="img-6f40b302-17">
          <path fill="none" d="M0,-22.86 L 0 22.86" class="primitive"/>
        </g>
      </g>
      <g class="plotpanel" id="img-6f40b302-18">
        <metadata>
          <boundingbox value="27.67645833333333mm 5.0mm 95.23958333333334mm 45.715mm"/>
          <unitbox value="-2.609601552688663 1.315066522833513 5.219203105377326 -2.630133045667026"/>
        </metadata>
        <g stroke-width="0.3" fill="#000000" fill-opacity="0.000" class="geometry" id="img-6f40b302-19">
          <g class="color_LCHab{Float32}(70.0f0,60.0f0,240.0f0)" stroke-dasharray="none" stroke="#00BFFF" id="img-6f40b302-20">
            <g transform="translate(75.49,27.86)" id="img-6f40b302-21">
              <path fill="none" d="M18.06,-0 L 18.03 -0.87 17.96 -1.74 17.85 -2.6 17.69 -3.45 17.49 -4.3 17.24 -5.14 16.95 -5.96 16.62 -6.77 16.24 -7.56 15.82 -8.33 15.36 -9.09 14.87 -9.81 14.33 -10.52 13.76 -11.2 13.16 -11.85 12.52 -12.47 11.85 -13.06 11.15 -13.62 10.42 -14.14 9.67 -14.63 8.89 -15.08 8.09 -15.49 7.26 -15.87 6.42 -16.2 5.56 -16.5 4.69 -16.75 3.8 -16.96 2.91 -17.13 2.01 -17.26 1.1 -17.34 0.19 -17.38 -0.72 -17.37 -1.64 -17.33 -2.54 -17.24 -3.44 -17.1 -4.34 -16.93 -5.22 -16.71 -6.09 -16.45 -6.95 -16.15 -7.79 -15.81 -8.61 -15.42 -9.4 -15 -10.18 -14.55 -10.93 -14.05 -11.65 -13.52 -12.35 -12.96 -13.02 -12.37 -13.65 -11.74 -14.25 -11.09 -14.81 -10.4 -15.34 -9.69 -15.83 -8.96 -16.28 -8.21 -16.69 -7.43 -17.06 -6.63 -17.39 -5.82 -17.67 -5 -17.91 -4.16 -18.11 -3.31 -18.26 -2.45 -18.36 -1.59 -18.42 -0.72 -18.44 0.15 -18.41 1.01 -18.33 1.88 -18.21 2.74 -18.05 3.6 -17.83 4.44 -17.58 5.28 -17.28 6.1 -16.94 6.9 -16.56 7.69 -16.13 8.46 -15.67 9.21 -15.17 9.93 -14.63 10.63 -14.05 11.31 -13.44 11.95 -12.79 12.57 -12.12 13.15 -11.41 13.7 -10.68 14.22 -9.92 14.7 -9.14 15.15 -8.33 15.56 -7.51 15.92 -6.66 16.25 -5.8 16.54 -4.93 16.79 -4.04 16.99 -3.14 17.15 -2.24 17.27 -1.33 17.35 -0.42 17.38 0.49 17.37 1.4 17.31 2.31 17.22 3.21 17.08 4.1 16.89 4.98 16.67 5.85 16.4 6.71 16.09 7.54 15.74 8.36 15.35 9.15 14.93 9.92 14.47 10.67 13.97 11.39 13.43 12.08 12.86 12.74 12.26 13.37 11.63 13.96 10.97 14.52 10.28 15.04 9.57 15.52 8.83 15.97 8.07 16.37 7.3 16.73 6.5 17.05 5.68 17.33 4.86 17.56 4.02 17.75 3.17 17.89 2.31 17.99 1.44 18.05 0.58 18.06 -0" class="primitive"/>
            </g>
          </g>
        </g>
        <g class="geometry" stroke-width="0.3" fill-opacity="0.4" stroke="#FFFFFF" fill="#B9EAFF" id="img-6f40b302-22">
          <g transform="translate(75.49,27.86)" id="img-6f40b302-23">
            <path d="M-0.42,17.38 L -1.33 17.35 -2.24 17.27 -3.14 17.15 -4.04 16.99 -4.93 16.79 -5.8 16.54 -6.66 16.25 -7.51 15.92 -8.33 15.56 -9.14 15.15 -9.92 14.7 -10.68 14.22 -11.41 13.7 -12.12 13.15 -12.79 12.57 -13.44 11.95 -14.05 11.31 -14.63 10.63 -15.17 9.93 -15.67 9.21 -16.13 8.46 -16.56 7.69 -16.94 6.9 -17.28 6.1 -17.58 5.28 -17.83 4.44 -18.05 3.6 -18.21 2.74 -18.33 1.88 -18.41 1.01 -18.44 0.15 -18.42 -0.72 -18.36 -1.59 -18.26 -2.45 -18.11 -3.31 -17.91 -4.16 -17.67 -5 -17.39 -5.82 -17.06 -6.63 -16.69 -7.43 -16.28 -8.21 -15.83 -8.96 -15.34 -9.69 -14.81 -10.4 -14.25 -11.09 -13.65 -11.74 -13.02 -12.37 -12.35 -12.96 -11.65 -13.52 -10.93 -14.05 -10.18 -14.55 -9.4 -15 -8.61 -15.42 -7.79 -15.81 -6.95 -16.15 -6.09 -16.45 -5.22 -16.71 -4.34 -16.93 -3.44 -17.1 -2.54 -17.24 -1.64 -17.33 -0.72 -17.37 0.19 -17.38 1.1 -17.34 2.01 -17.26 2.91 -17.13 3.8 -16.96 4.69 -16.75 5.56 -16.5 6.42 -16.2 7.26 -15.87 8.09 -15.49 8.89 -15.08 9.67 -14.63 10.42 -14.14 11.15 -13.62 11.85 -13.06 12.52 -12.47 13.16 -11.85 13.76 -11.2 14.33 -10.52 14.87 -9.81 15.36 -9.09 15.82 -8.33 16.24 -7.56 16.62 -6.77 16.95 -5.96 17.24 -5.14 17.49 -4.3 17.69 -3.45 17.85 -2.6 17.96 -1.74 18.03 -0.87 18.06 -0 18.06 -0 18.05 0.58 17.99 1.44 17.89 2.31 17.75 3.17 17.56 4.02 17.33 4.86 17.05 5.68 16.73 6.5 16.37 7.3 15.97 8.07 15.52 8.83 15.04 9.57 14.52 10.28 13.96 10.97 13.37 11.63 12.74 12.26 12.08 12.86 11.39 13.43 10.67 13.97 9.92 14.47 9.15 14.93 8.36 15.35 7.54 15.74 6.71 16.09 5.85 16.4 4.98 16.67 4.1 16.89 3.21 17.08 2.31 17.22 1.4 17.31 0.49 17.37 z" class="primitive"/>
          </g>
        </g>
        <g class="geometry" stroke="#000000" stroke-opacity="0.000" fill="#4C404B" font-size="3.53" font-family="'PT Sans Caption','Helvetica Neue','Helvetica',sans-serif" id="img-6f40b302-24">
          <g class="marker" id="img-6f40b302-25">
            <g transform="translate(33.33,27.86)" id="img-6f40b302-26" visibility="visible">
              <g class="primitive">
                <text text-anchor="middle" dy="0.35em" transform="translate(3.07,3.57)">(u, v)</text>
              </g>
            </g>
            <g transform="translate(113.62,19.17)" id="img-6f40b302-27" visibility="visible">
              <g class="primitive">
                <text text-anchor="middle" dy="0.35em" transform="translate(2.99,3.57)">(x, y)</text>
              </g>
            </g>
            <g transform="translate(77.12,20.9)" id="img-6f40b302-28" visibility="visible">
              <g class="primitive">
                <text text-anchor="middle" dy="0.35em" transform="translate(1.11,3.57)">θ</text>
              </g>
            </g>
            <g transform="translate(51.57,14.82)" id="img-6f40b302-29" visibility="visible">
              <g class="primitive">
                <text text-anchor="middle" dy="0.35em" transform="translate(0.77,3.57)">a</text>
              </g>
            </g>
            <g transform="translate(93.54,10.48)" id="img-6f40b302-30" visibility="visible">
              <g class="primitive">
                <text text-anchor="middle" dy="0.35em" transform="translate(0.83,3.57)">b</text>
              </g>
            </g>
          </g>
        </g>
        <g stroke-width="0.3" fill="#000000" fill-opacity="0.000" class="geometry" id="img-6f40b302-31">
          <g class="color_RGB{N0f8}(0.0,0.0,0.0)" stroke-dasharray="none" stroke="#000000" id="img-6f40b302-32">
            <g transform="translate(79.5,22.35)" id="img-6f40b302-33">
              <path fill="none" d="M14.04,5.51 L -4.2 5.51 -9.84 -11.02" class="primitive"/>
            </g>
          </g>
        </g>
        <g class="geometry" id="img-6f40b302-34">
          <g stroke-width="0.3" id="img-6f40b302-35">
            <g class="color_RGBA{Float32}(0.0f0,0.5019608f0,0.5019608f0,1.0f0)" fill-opacity="1" stroke="#FFFFFF" fill="#008080" id="img-6f40b302-36">
              <g class="marker" id="img-6f40b302-37">
                <g transform="translate(111.79,19.17)" id="img-6f40b302-38">
                  <circle cx="0" cy="0" r="1.06" class="primitive"/>
                </g>
              </g>
            </g>
            <g class="color_RGBA{Float32}(0.0f0,0.5019608f0,0.5019608f0,1.0f0)" fill-opacity="1" stroke="#FFFFFF" fill="#008080" id="img-6f40b302-39">
              <g class="marker" id="img-6f40b302-40">
                <g transform="translate(69.66,11.33)" id="img-6f40b302-41">
                  <circle cx="0" cy="0" r="1.06" class="primitive"/>
                </g>
              </g>
            </g>
            <g class="color_RGBA{Float32}(0.0f0,0.5019608f0,0.5019608f0,1.0f0)" fill-opacity="1" stroke="#FFFFFF" fill="#008080" id="img-6f40b302-42">
              <g class="marker" id="img-6f40b302-43">
                <g transform="translate(38.8,27.86)" id="img-6f40b302-44">
                  <circle cx="0" cy="0" r="1.06" class="primitive"/>
                </g>
              </g>
            </g>
          </g>
        </g>
        <g stroke-width="0.71" fill="#000000" fill-opacity="0.000" class="geometry" id="img-6f40b302-45">
          <g class="color_RGB{N0f8}(0.0,0.502,0.502)" stroke-dasharray="none" stroke="#008080" id="img-6f40b302-46">
            <g transform="translate(73.42,19.45)" id="img-6f40b302-47">
              <path fill="none" d="M-34.62,8.41 L -3.76 -8.12 38.38 -0.28" class="primitive"/>
            </g>
          </g>
        </g>
      </g>
    </g>
  </g>
  <g class="guide ylabels" font-size="2.82" font-family="'PT Sans Caption','Helvetica Neue','Helvetica',sans-serif" fill="#6C606B" id="img-6f40b302-48">
    <g transform="translate(26.68,45.24)" id="img-6f40b302-49">
      <g class="primitive">
        <text text-anchor="end" dy="0.35em">-1</text>
      </g>
    </g>
    <g transform="translate(26.68,27.86)" id="img-6f40b302-50">
      <g class="primitive">
        <text text-anchor="end" dy="0.35em">0</text>
      </g>
    </g>
    <g transform="translate(26.68,10.48)" id="img-6f40b302-51">
      <g class="primitive">
        <text text-anchor="end" dy="0.35em">1</text>
      </g>
    </g>
  </g>
  <g font-size="3.88" font-family="'PT Sans','Helvetica Neue','Helvetica',sans-serif" fill="#564A55" stroke="#000000" stroke-opacity="0.000" id="img-6f40b302-52">
    <g transform="translate(20.89,27.86)" id="img-6f40b302-53">
      <g class="primitive">
        <text text-anchor="end" dy="0.35em">y</text>
      </g>
    </g>
  </g>
</g>
<defs>
  <clipPath id="img-6f40b302-4">
    <path d="M27.68,5 L 122.92 5 122.92 50.72 27.68 50.72" />
  </clipPath>
</defs>
</svg>
